<?xml version="1.0" encoding="UTF-8"?>
<svg id="Layer_1" data-name="Layer 1" xmlns="http://www.w3.org/2000/svg" viewBox="0 0 841.89 595.28">
  <defs>
    <style>
      .cls-1, .cls-2, .cls-3, .cls-4, .cls-5, .cls-6, .cls-7 {
        fill: #1a194d;
      }

      .cls-1, .cls-2, .cls-3, .cls-4, .cls-5, .cls-7 {
        font-family: Dubai-Medium, Dubai;
        font-weight: 500;
      }

      .cls-1, .cls-5 {
        font-size: 9.08px;
      }

      .cls-8 {
        stroke: #231f20;
      }

      .cls-8, .cls-9 {
        fill: #fff;
      }

      .cls-8, .cls-10, .cls-6, .cls-11, .cls-12, .cls-13, .cls-14 {
        stroke-miterlimit: 10;
      }

      .cls-8, .cls-12 {
        stroke-width: 2px;
      }

      .cls-15 {
        letter-spacing: -.01em;
      }

      .cls-2 {
        font-size: 6px;
      }

      .cls-10, .cls-6, .cls-11, .cls-12, .cls-13, .cls-14 {
        stroke: #1a194d;
      }

      .cls-10, .cls-11, .cls-12 {
        fill: none;
      }

      .cls-10, .cls-13, .cls-14 {
        stroke-width: .5px;
      }

      .cls-16 {
        letter-spacing: 0em;
      }

      .cls-3 {
        font-size: 8.25px;
      }

      .cls-17 {
        letter-spacing: 0em;
      }

      .cls-18 {
        letter-spacing: 0em;
      }

      .cls-4 {
        font-size: 7.43px;
      }

      .cls-5 {
        opacity: .71;
      }

      .cls-7 {
        font-size: 6.6px;
      }

      .cls-19 {
        letter-spacing: 0em;
      }

      .cls-13 {
        opacity: .56;
      }

      .cls-13, .cls-14 {
        fill: #d3eef9;
      }
    </style>
  </defs>
  <rect class="cls-9" width="841.89" height="595.28"/>
  <circle class="cls-8" cx="96.53" cy="290.06" r="17.82"/>
  <text class="cls-1" transform="translate(86.89 321.01)"><tspan x="0" y="0">Start</tspan><tspan x="-4.9" y="10.9">Process</tspan></text>
  <text class="cls-5" transform="translate(29.86 297.49) rotate(-90)"><tspan x="0" y="0">PROCESS</tspan></text>
  <text class="cls-5" transform="translate(29.98 123.99) rotate(-90)"><tspan x="0" y="0">R</tspan><tspan class="cls-16" x="5.36" y="0">E</tspan><tspan x="10.32" y="0">F</tspan><tspan class="cls-19" x="15.06" y="0">E</tspan><tspan class="cls-17" x="20.03" y="0">R</tspan><tspan class="cls-16" x="25.39" y="0">E</tspan><tspan class="cls-18" x="30.35" y="0">NCES INF</tspan><tspan class="cls-15" x="67.68" y="0">O</tspan><tspan x="74.06" y="0">.</tspan></text>
  <text class="cls-5" transform="translate(30.09 531.07) rotate(-90)"><tspan x="0" y="0">INFO. EXCHANGE</tspan></text>
  <circle class="cls-8" cx="749.49" cy="290.3" r="17.82"/>
  <text class="cls-1" transform="translate(742.24 321.25)"><tspan x="0" y="0">End</tspan><tspan x="-7.29" y="10.9">Process</tspan></text>
  <text class="cls-3" transform="translate(178.06 287.48)"><tspan x="0" y="0">Collect</tspan><tspan x="-25.32" y="9.91">Column Specification</tspan></text>
  <text class="cls-2" transform="translate(175.57 509.82)"><tspan x="0" y="0">IFC MODEL</tspan></text>
  <text class="cls-2" transform="translate(156.2 133.8)"><tspan x="0" y="0">PROJECT MANAGEMENT</tspan><tspan x="21.97" y="7.2">REPORT</tspan></text>
  <text class="cls-2" transform="translate(379.5 130.57)"><tspan x="0" y="0">PROJECT MANAGEMENT</tspan><tspan x="7.53" y="7.2">REPORT APPENDIX</tspan></text>
  <rect class="cls-12" x="145.41" y="272.24" width="86.86" height="35.64"/>
  <text class="cls-4" transform="translate(273.2 287.48)"><tspan x="0" y="0">Are Specifications</tspan><tspan x="11.42" y="8.91">Complete?</tspan></text>
  <text class="cls-4" transform="translate(304.89 256.56)"><tspan x="0" y="0">NO</tspan></text>
  <text class="cls-4" transform="translate(349.14 287.48)"><tspan x="0" y="0">YES</tspan></text>
  <rect class="cls-12" x="257.57" y="272.24" width="86.86" height="35.64"/>
  <text class="cls-4" transform="translate(390.58 287.95)"><tspan x="0" y="0">Material Cost </tspan><tspan x="4.96" y="8.92">Estimation</tspan></text>
  <text class="cls-4" transform="translate(780.63 553.81)"><tspan x="0" y="0">Group 44</tspan></text>
  <rect class="cls-12" x="368.72" y="272.71" width="86.86" height="35.64"/>
  <text class="cls-7" transform="translate(500.68 287.95)"><tspan x="0" y="0">Calculate Total </tspan><tspan x="3.43" y="7.92">Column Cost</tspan></text>
  <rect class="cls-12" x="478.13" y="272.71" width="86.86" height="35.64"/>
  <text class="cls-4" transform="translate(598.55 287.95)"><tspan x="0" y="0">Review and approve</tspan><tspan x="16.86" y="8.92">Estimate</tspan></text>
  <text class="cls-4" transform="translate(687.43 285.28)"><tspan x="0" y="0">Approved</tspan></text>
  <text class="cls-4" transform="translate(636.14 324)"><tspan x="0" y="0">Not</tspan><tspan x="0" y="8.92">Approved</tspan></text>
  <rect class="cls-12" x="585.53" y="272.71" width="86.86" height="35.64"/>
  <polyline class="cls-11" points="301 272.24 301 240.87 96.53 240.87 96.53 272.24"/>
  <line class="cls-11" x1="344.43" y1="291.99" x2="368.72" y2="291.99"/>
  <polyline class="cls-6" points="455.58 291.99 477.34 291.99 455.58 291.99"/>
  <line class="cls-6" x1="564.99" y1="290.53" x2="585.53" y2="290.53"/>
  <line class="cls-6" x1="672.4" y1="290.53" x2="731.67" y2="290.53"/>
  <polyline class="cls-11" points="628.97 308.35 628.97 339.28 412.15 339.28 412.15 308.35"/>
  <line class="cls-6" x1="232.28" y1="290.06" x2="257.57" y2="290.06"/>
  <line class="cls-6" x1="114.35" y1="290.06" x2="145.41" y2="290.06"/>
  <rect class="cls-11" x="11.11" y="11.66" width="820.54" height="573.44"/>
  <line class="cls-11" x1="46.05" y1="11.66" x2="46.05" y2="585.11"/>
  <polyline class="cls-11" points="11.11 175.69 46.05 175.69 831.66 175.69"/>
  <line class="cls-11" x1="11.11" y1="390.83" x2="831.66" y2="390.83"/>
  <g>
    <polygon class="cls-14" points="399.23 117.51 399.23 84.94 421.49 84.94 424.53 88.48 424.53 117.51 399.23 117.51"/>
    <polyline class="cls-10" points="424.8 88.99 421.21 88.99 421.21 84.91"/>
  </g>
  <g>
    <polygon class="cls-14" points="176.06 119.58 176.06 87 198.31 87 201.36 90.54 201.36 119.58 176.06 119.58"/>
    <polyline class="cls-10" points="201.63 91.05 198.04 91.05 198.04 86.97"/>
  </g>
  <g>
    <polygon class="cls-14" points="177.4 498.29 177.4 465.72 199.66 465.72 202.7 469.26 202.7 498.29 177.4 498.29"/>
    <polyline class="cls-10" points="202.98 469.77 199.38 469.77 199.38 465.68"/>
  </g>
  <line class="cls-13" x1="187.49" y1="144.87" x2="187.49" y2="272.71"/>
  <line class="cls-13" x1="411.88" y1="144.87" x2="411.88" y2="272.71"/>
  <line class="cls-13" x1="188.85" y1="307.88" x2="188.85" y2="455.02"/>
</svg>